<svg data-v-7cebcb3b="" width="30" height="30" viewBox="0 0 42 42" fill="none" xmlns="http://www.w3.org/2000/svg" style="margin-top: 0px; margin-left: 0px;"><circle data-v-7cebcb3b="" cx="20" cy="20" r="20" fill="#2F80ED"></circle><path data-v-7cebcb3b="" d="M25.7798 18.6659C24.5829 18.563 23.5982 17.7064 23.3049 16.5738H20.7031V23.4263H25.5212C25.7994 21.8884 25.8892 20.2726 25.7798 18.6659Z" fill="white"></path><path data-v-7cebcb3b="" d="M26.022 14.4705C25.25 14.4705 24.6219 15.0986 24.6219 15.8706C24.6219 16.6427 25.25 17.2708 26.022 17.2708C26.7941 17.2708 27.4222 16.6427 27.4222 15.8706C27.4222 15.0986 26.7941 14.4705 26.022 14.4705Z" fill="white"></path><path data-v-7cebcb3b="" d="M13.9105 26.2901C15.0784 26.2901 16.0251 25.3434 16.0251 24.1755C16.0251 23.0077 15.0784 22.061 13.9105 22.061C12.7427 22.061 11.796 23.0077 11.796 24.1755C11.796 25.3434 12.7427 26.2901 13.9105 26.2901Z" fill="white"></path><path data-v-7cebcb3b="" d="M19.2968 8C17.6919 9.10287 16.387 10.9624 15.4861 13.1156C15.2136 13.7669 14.9823 14.4545 14.7929 15.1675H19.2968V8Z" fill="white"></path><path data-v-7cebcb3b="" d="M14.1865 20.6665C15.7471 20.7882 17.0249 21.931 17.3504 23.4263H19.2969V16.5738H14.4801C14.2407 17.8977 14.14 19.2817 14.1865 20.6665Z" fill="white"></path><path data-v-7cebcb3b="" d="M19.2968 32V24.8325H17.369C17.1729 25.8668 16.5233 26.7419 15.6353 27.2432C16.5132 29.2462 17.7404 30.9502 19.2968 32Z" fill="white"></path><path data-v-7cebcb3b="" d="M20.7031 32C22.3857 30.8452 23.7334 28.8817 24.6373 26.5806C24.8578 26.0191 25.0485 25.4345 25.2087 24.8325H20.7031V32Z" fill="white"></path><path data-v-7cebcb3b="" d="M25.9462 27.0947C25.2479 28.8724 24.3025 30.3832 23.1516 31.5809C26.6667 30.6266 29.5403 28.1151 30.9863 24.8325H26.6589C26.4678 25.6143 26.23 26.3721 25.9462 27.0947Z" fill="white"></path><path data-v-7cebcb3b="" d="M13.9106 27.6964C12.1937 27.6964 10.7609 26.4609 10.4521 24.8325H9.01373C10.4542 28.1024 13.3111 30.6072 16.8077 31.5699C15.7872 30.5113 14.9452 29.2108 14.2896 27.6756C14.165 27.6891 14.0386 27.6964 13.9106 27.6964Z" fill="white"></path><path data-v-7cebcb3b="" d="M27.1731 18.4291C27.2987 20.1095 27.2198 21.8041 26.9479 23.4263H31.5028C31.8257 22.3405 32 21.1907 32 20C32 18.8093 31.8257 17.6595 31.5028 16.5738H28.7392C28.5246 17.4022 27.9399 18.0827 27.1731 18.4291Z" fill="white"></path><path data-v-7cebcb3b="" d="M12.7853 20.8401C12.7285 19.4019 12.821 17.9605 13.0535 16.5738H8.4972C8.17428 17.6595 8 18.8093 8 20C8 21.1907 8.17428 22.3405 8.4972 23.4263H10.4708C10.7347 22.2134 11.6254 21.2326 12.7853 20.8401Z" fill="white"></path><path data-v-7cebcb3b="" d="M26.0073 13.0646C26.0122 13.0646 26.0171 13.0642 26.022 13.0642C27.3267 13.0642 28.4263 13.9592 28.7392 15.1675H30.9863C29.5401 11.8846 26.6661 9.37292 23.1505 8.41882C23.4207 8.70026 23.6803 8.99914 23.9283 9.31578C24.7717 10.3926 25.4694 11.6519 26.0073 13.0646Z" fill="white"></path><path data-v-7cebcb3b="" d="M20.7031 8V15.1675H23.3049C23.4974 14.424 23.9882 13.7997 24.641 13.429C23.947 11.6572 22.7454 9.39561 20.7031 8V8Z" fill="white"></path><path data-v-7cebcb3b="" d="M14.1889 12.5727C14.872 10.9399 15.7712 9.54144 16.8499 8.41869C13.3341 9.37278 10.4599 11.8844 9.01367 15.1675H13.342C13.5629 14.2628 13.8461 13.392 14.1889 12.5727Z" fill="white"></path></svg>