<?xml version="1.0" encoding="UTF-8"?>
<svg id="Layer_2" data-name="Layer 2" xmlns="http://www.w3.org/2000/svg" viewBox="0 0 87.66 88.04">
  <defs>
    <style>
      .cls-1 {
        fill: #202b5d;
      }

      .cls-2 {
        fill: #dda727;
      }
    </style>
  </defs>
  <g id="Layer_1-2" data-name="Layer 1">
    <g>
      <path class="cls-1" d="M84.08,34.61L53.36,3.9c-5.19-5.19-13.62-5.19-18.81,0L3.83,34.61c-1.86,1.86-3.05,4.13-3.58,6.52h20.96l23.55-23.55,23.55,23.55h19.33c-.53-2.39-1.72-4.66-3.58-6.52"/>
      <path class="cls-2" d="M74.7,62.81l-11.95,11.95-9.38,9.39c-5.19,5.19-13.61,5.19-18.81,0L3.83,53.42c-2.27-2.27-3.55-5.17-3.83-8.14h21.22l23.55,23.55,6.02-6.02-17.53-17.53h23.9l5.58,5.58,11.95,11.95Z"/>
    </g>
  </g>
</svg>