;<svg
  width="16"
  height="17"
  viewBox="0 0 16 17"
  fill="none"
  xmlns="http://www.w3.org/2000/svg"
>
  <path
    d="M1.04347 1.41845C-0.210005 2.72044 0.0465391 4.10352 0.0465391 8.30525C0.0465391 11.7945 -0.562254 15.2924 2.62394 16.1159C3.61888 16.3718 12.4344 16.3718 13.428 16.1145C14.7546 15.7723 15.8339 14.6962 15.9815 12.82C16.0021 12.5582 16.0021 4.05699 15.9808 3.78982C15.824 1.7913 14.5938 0.639513 12.9727 0.406231C12.6012 0.352397 12.5268 0.336446 10.6207 0.333123C3.85947 0.336446 2.37736 0.0353728 1.04347 1.41845Z"
    fill="url(#paint0_linear_10139_26962)"
  />
  <path
    d="M8.02077 2.41926C5.60753 2.41926 3.31592 2.20459 2.44061 4.451C2.07906 5.37881 2.13157 6.58377 2.13157 8.30913C2.13157 9.82314 2.08305 11.2461 2.44061 12.1666C3.31393 14.4143 5.62415 14.199 8.01944 14.199C10.3303 14.199 12.713 14.4396 13.5989 12.1666C13.9612 11.2295 13.908 10.0425 13.908 8.30913C13.908 6.00821 14.0349 4.52278 12.919 3.40755C11.7892 2.27769 10.2612 2.41926 8.01811 2.41926H8.02077ZM7.49306 3.48066C12.5269 3.47268 13.1676 2.91307 12.814 10.6871C12.6884 13.4367 10.5948 13.1349 8.02144 13.1349C3.32921 13.1349 3.19429 13.0007 3.19429 8.30647C3.19429 3.55775 3.56648 3.48332 7.49306 3.47933V3.48066ZM11.1644 4.45831C10.9771 4.45831 10.7974 4.53275 10.6649 4.66524C10.5324 4.79773 10.4579 4.97743 10.4579 5.16481C10.4579 5.35218 10.5324 5.53188 10.6649 5.66437C10.7974 5.79686 10.9771 5.8713 11.1644 5.8713C11.3518 5.8713 11.5315 5.79686 11.664 5.66437C11.7965 5.53188 11.8709 5.35218 11.8709 5.16481C11.8709 4.97743 11.7965 4.79773 11.664 4.66524C11.5315 4.53275 11.3518 4.45831 11.1644 4.45831ZM8.02077 5.28444C7.62361 5.28448 7.23034 5.36275 6.86343 5.51478C6.49651 5.66681 6.16313 5.88962 5.88233 6.17049C5.31521 6.73773 4.99666 7.50702 4.99675 8.30913C4.99683 9.11124 5.31556 9.88046 5.8828 10.4476C6.45003 11.0147 7.21933 11.3332 8.02144 11.3332C8.82354 11.3331 9.59277 11.0143 10.1599 10.4471C10.727 9.87987 11.0455 9.11057 11.0455 8.30846C11.0454 7.50635 10.7267 6.73713 10.1594 6.17002C9.59217 5.6029 8.82288 5.28435 8.02077 5.28444ZM8.02077 6.34584C10.6161 6.34584 10.6194 10.2724 8.02077 10.2724C5.42609 10.2724 5.4221 6.34584 8.02077 6.34584Z"
    fill="white"
  />
  <defs>
    <linearGradient
      id="paint0_linear_10139_26962"
      x1="1.07406"
      y1="15.2652"
      x2="15.8987"
      y2="2.43464"
      gradientUnits="userSpaceOnUse"
    >
      <stop stopColor="#FFDD55" />
      <stop
        offset="0.5"
        stopColor="#FF543E"
      />
      <stop
        offset="1"
        stopColor="#C837AB"
      />
    </linearGradient>
  </defs>
</svg>
