<svg width="16" height="17" viewBox="0 0 16 17" fill="none" xmlns="http://www.w3.org/2000/svg">
<path fill-rule="evenodd" clip-rule="evenodd" d="M6 3.30762C6.22324 3.30762 6.41943 3.45561 6.48076 3.67026L7.02289 5.56772C7.26018 6.39824 7.90938 7.04743 8.7399 7.28472L10.6374 7.82686C10.852 7.88818 11 8.08438 11 8.30762C11 8.53086 10.852 8.72705 10.6374 8.78838L8.7399 9.33051C7.90938 9.5678 7.26018 10.217 7.02289 11.0475L6.48076 12.945C6.41943 13.1596 6.22324 13.3076 6 13.3076C5.77676 13.3076 5.58057 13.1596 5.51924 12.945L4.97711 11.0475C4.73982 10.217 4.09062 9.5678 3.2601 9.33051L1.36264 8.78838C1.14799 8.72705 1 8.53086 1 8.30762C1 8.08438 1.14799 7.88818 1.36264 7.82686L3.2601 7.28472C4.09062 7.04743 4.73982 6.39824 4.97711 5.56772L5.51924 3.67026C5.58057 3.45561 5.77676 3.30762 6 3.30762Z" fill="#64748B"/>
<path fill-rule="evenodd" clip-rule="evenodd" d="M12 1.30762C12.2294 1.30762 12.4294 1.46377 12.4851 1.68635L12.6576 2.37666C12.8144 3.00366 13.304 3.49322 13.931 3.64997L14.6213 3.82255C14.8439 3.87819 15 4.07818 15 4.30762C15 4.53705 14.8439 4.73704 14.6213 4.79269L13.931 4.96527C13.304 5.12202 12.8144 5.61158 12.6576 6.23858L12.4851 6.92888C12.4294 7.15147 12.2294 7.30762 12 7.30762C11.7706 7.30762 11.5706 7.15147 11.5149 6.92888L11.3424 6.23858C11.1856 5.61158 10.696 5.12202 10.069 4.96527L9.37873 4.79269C9.15615 4.73704 9 4.53705 9 4.30762C9 4.07818 9.15615 3.87819 9.37873 3.82255L10.069 3.64997C10.696 3.49322 11.1856 3.00366 11.3424 2.37666L11.5149 1.68635C11.5706 1.46377 11.7706 1.30762 12 1.30762Z" fill="#64748B"/>
<path fill-rule="evenodd" clip-rule="evenodd" d="M11 10.3076C11.2152 10.3076 11.4063 10.4453 11.4743 10.6495L11.7372 11.438C11.8367 11.7366 12.071 11.9709 12.3696 12.0704L13.1581 12.3333C13.3623 12.4013 13.5 12.5924 13.5 12.8076C13.5 13.0228 13.3623 13.2139 13.1581 13.282L12.3696 13.5448C12.071 13.6443 11.8367 13.8786 11.7372 14.1772L11.4743 14.9657C11.4063 15.1699 11.2152 15.3076 11 15.3076C10.7848 15.3076 10.5937 15.1699 10.5257 14.9657L10.2628 14.1772C10.1633 13.8786 9.92898 13.6443 9.63037 13.5448L8.84189 13.282C8.63771 13.2139 8.5 13.0228 8.5 12.8076C8.5 12.5924 8.63771 12.4013 8.84189 12.3333L9.63037 12.0704C9.92898 11.9709 10.1633 11.7366 10.2628 11.438L10.5257 10.6495C10.5937 10.4453 10.7848 10.3076 11 10.3076Z" fill="#64748B"/>
</svg>
