<svg width="34" height="40" viewBox="0 0 34 40" fill="none" xmlns="http://www.w3.org/2000/svg">
<g clip-path="url(#clip0_13351_48356)">
<path d="M22.7365 7.80585L22.1107 10.1265C27.1589 12.2784 30.7051 17.3417 30.7051 23.2067C30.7051 31.0548 24.4053 37.4261 16.6454 37.4261C8.88543 37.4683 2.58569 31.097 2.58569 23.2067C2.58569 17.0042 6.5491 11.6877 12.0144 9.78897L12.974 7.25732C5.9233 9.11386 0.75 15.6118 0.75 23.3755C0.75 32.5738 8.00931 39.9999 17.0209 39.9999C26.0324 39.9999 33.2917 32.5738 33.2917 23.3755C33.25 16.2447 28.8694 10.1687 22.7365 7.80585Z" fill="#E8441E"/>
<path d="M28.7034 22.6585L27.2432 22.6163C27.2015 22.6163 27.1597 22.5741 27.1597 22.5319L27.5352 17.9327C27.5352 17.8905 27.5352 17.8483 27.4935 17.8483C27.118 17.6374 24.9486 16.3716 21.0269 15.4011C20.9852 15.4011 20.9434 15.3589 20.9434 15.2745C21.0269 14.6838 21.0686 14.304 21.1103 14.1353C21.1103 14.0931 21.0686 14.0509 21.0269 14.0087C20.7766 13.9243 19.9839 13.7133 19.0243 13.6711C18.9826 13.6711 18.8991 13.6289 18.9409 13.5445C19.1912 12.4897 20.2342 7.89054 20.4428 7.04666C20.4428 6.96227 20.4011 6.92008 20.3594 6.92008L17.4807 7.17324C17.3972 7.17324 17.3555 7.13105 17.3972 7.04666L18.9409 0.126827C18.9826 0.000244791 18.8157 -0.0419493 18.7323 0.0424389L14.3517 9.28294C14.3099 9.36733 14.3517 9.45172 14.4351 9.40953L17.4389 9.28294C17.5224 9.28294 17.5641 9.36733 17.5224 9.40953L16.3542 13.2492C16.3542 13.2914 16.3125 13.3336 16.2708 13.3336L14.4351 13.3758C14.3934 13.3758 14.3517 13.418 14.3517 13.4602L14.3099 14.5994C14.3099 14.6416 14.2682 14.6838 14.2265 14.6838C13.6007 14.726 9.72072 14.8948 7.34267 15.6964C7.30095 15.6964 7.25923 15.7386 7.25923 15.7808L6.84203 20.2956C6.84203 20.3378 6.80031 20.38 6.71687 20.38L5.21494 20.2534C5.17322 20.2534 5.1315 20.2956 5.08978 20.3378L4.63086 24.4306C4.63086 24.4728 4.67258 24.5572 4.7143 24.5572L6.1745 24.6838C6.21622 24.6838 6.25795 24.726 6.25795 24.8104L5.92418 28.1859C5.92418 28.2281 5.92418 28.2703 5.9659 28.2703C6.71687 28.7344 15.5615 33.8399 26.1167 30.5488C26.1585 30.5488 26.2002 30.5066 26.2002 30.4644C26.3671 29.0298 26.4922 27.5108 26.5339 27.131C26.5339 27.0889 26.5757 27.0467 26.6591 27.0467L28.2027 27.2154C28.2445 27.2154 28.2862 27.1732 28.3279 27.131L28.7868 22.9116C28.7868 22.7007 28.7451 22.6585 28.7034 22.6585ZM23.6135 28.0593C23.6135 28.0593 16.3959 30.0846 9.01147 26.5825C9.2618 23.9665 9.80416 17.9327 9.80416 17.9327C9.80416 17.9327 17.3972 16.2872 24.4479 19.5783L23.6135 28.0593Z" fill="#E8441E"/>
<path d="M13.8093 21.0124C13.8093 21.0124 13.6424 20.9702 13.5173 21.0124C13.3921 21.0124 13.3087 21.0968 13.1835 21.139C12.9332 21.2656 10.8889 22.0251 11.6816 23.0377C12.0571 23.4175 12.3908 23.4597 12.9749 23.1221C13.3087 22.9111 13.559 22.8689 13.6007 22.8689C13.6007 22.7002 13.8093 21.0124 13.8093 21.0124Z" fill="#E8441E"/>
<path d="M13.7672 21.0127C13.7672 21.0127 13.9341 21.0127 14.0592 21.0549C14.1844 21.0971 14.2678 21.1815 14.3513 21.2659C14.5599 21.4768 16.3956 22.6161 15.3943 23.46C14.9771 23.7553 14.6016 23.7131 14.101 23.249C13.8089 22.9958 13.6003 22.8692 13.5586 22.8692C13.6003 22.7005 13.7672 21.0127 13.7672 21.0127Z" fill="#E8441E"/>
<path d="M20.1081 21.6877C20.1081 21.6877 19.9413 21.6455 19.8161 21.6877C19.6909 21.6877 19.6075 21.7721 19.4823 21.8143C19.232 21.9409 17.1877 22.7004 17.9804 23.713C18.3559 24.0928 18.6897 24.135 19.2737 23.7974C19.6075 23.5864 19.8578 23.5442 19.8995 23.5442C19.8995 23.3755 20.1081 21.6877 20.1081 21.6877Z" fill="#E8441E"/>
<path d="M20.066 21.688C20.066 21.688 20.2329 21.688 20.3581 21.7302C20.4832 21.7724 20.5667 21.8568 20.6501 21.9412C20.8587 22.1521 22.6944 23.2914 21.6931 24.1352C21.2759 24.4306 20.9004 24.3884 20.3998 23.9243C20.1077 23.6711 19.8991 23.5445 19.8574 23.5445C19.8991 23.3758 20.066 21.688 20.066 21.688Z" fill="#E8441E"/>
<path d="M5.67383 33.9243C5.67383 33.9243 15.3112 30.0425 25.6995 35.9496C22.487 37.6796 19.358 38.6079 19.358 38.6079L10.4299 37.1733L6.46651 35.0214L5.67383 33.9243Z" fill="#E8441E"/>
</g>
<defs>
<clipPath id="clip0_13351_48356">
<rect x="0.75" width="32.5" height="40" rx="16.25" fill="white"/>
</clipPath>
</defs>
</svg>
