<svg width="17" height="17" viewBox="0 0 17 17" fill="none" xmlns="http://www.w3.org/2000/svg">
<path fill-rule="evenodd" clip-rule="evenodd" d="M3.70243 14.9295C3.81954 14.9505 3.93821 14.9669 4.05794 14.9785C4.20344 14.9927 4.35098 15 4.5 15C5.37687 15 6.19631 14.7487 6.88878 14.3142C7.4046 14.4356 7.94453 14.5 8.5 14.5C12.048 14.5 15 11.8538 15 8.5C15 5.14623 12.048 2.5 8.5 2.5C4.95199 2.5 2 5.14623 2 8.5C2 10.1057 2.68306 11.5581 3.78247 12.6282C3.93714 12.7788 3.96738 12.9131 3.95215 12.9899C3.86836 13.4123 3.67791 13.7968 3.40904 14.1141C3.29344 14.2505 3.25951 14.4383 3.32006 14.6066C3.3806 14.7749 3.5264 14.898 3.70243 14.9295ZM6 7.75C5.58579 7.75 5.25 8.08579 5.25 8.5C5.25 8.91421 5.58579 9.25 6 9.25C6.41421 9.25 6.75 8.91421 6.75 8.5C6.75 8.08579 6.41421 7.75 6 7.75ZM7.75 8.5C7.75 8.08579 8.08579 7.75 8.5 7.75C8.91421 7.75 9.25 8.08579 9.25 8.5C9.25 8.91421 8.91421 9.25 8.5 9.25C8.08579 9.25 7.75 8.91421 7.75 8.5ZM11 7.75C10.5858 7.75 10.25 8.08579 10.25 8.5C10.25 8.91421 10.5858 9.25 11 9.25C11.4142 9.25 11.75 8.91421 11.75 8.5C11.75 8.08579 11.4142 7.75 11 7.75Z" fill="#FEF08A"/>
</svg>
