<svg width="20" height="20" viewBox="0 0 20 20"  xmlns="http://www.w3.org/2000/svg">
<path fill-rule="evenodd" clip-rule="evenodd" d="M7.49984 5.83366C7.49984 4.72859 7.93882 3.66878 8.72023 2.88738C9.50163 2.10598 10.5614 1.66699 11.6665 1.66699C12.7716 1.66699 13.8314 2.10598 14.6128 2.88738C15.3942 3.66878 15.8332 4.72859 15.8332 5.83366V12.5003C15.8332 13.2664 15.6823 14.0249 15.3891 14.7326C15.096 15.4404 14.6663 16.0834 14.1246 16.6251C13.583 17.1668 12.9399 17.5965 12.2322 17.8896C11.5244 18.1828 10.7659 18.3337 9.99984 18.3337C9.23379 18.3337 8.47525 18.1828 7.76752 17.8896C7.05978 17.5965 6.41672 17.1668 5.87505 16.6251C5.33337 16.0834 4.90369 15.4404 4.61054 14.7326C4.31739 14.0249 4.1665 13.2664 4.1665 12.5003V7.50033C4.1665 7.27931 4.2543 7.06735 4.41058 6.91107C4.56686 6.75479 4.77882 6.66699 4.99984 6.66699C5.22085 6.66699 5.43281 6.75479 5.58909 6.91107C5.74537 7.06735 5.83317 7.27931 5.83317 7.50033V12.5003C5.83317 13.6054 6.27216 14.6652 7.05356 15.4466C7.83496 16.228 8.89477 16.667 9.99984 16.667C11.1049 16.667 12.1647 16.228 12.9461 15.4466C13.7275 14.6652 14.1665 13.6054 14.1665 12.5003V5.83366C14.1665 5.50535 14.1018 5.18026 13.9762 4.87695C13.8506 4.57364 13.6664 4.29804 13.4343 4.06589C13.2021 3.83375 12.9265 3.6496 12.6232 3.52396C12.3199 3.39832 11.9948 3.33366 11.6665 3.33366C11.3382 3.33366 11.0131 3.39832 10.7098 3.52396C10.4065 3.6496 10.1309 3.83375 9.89874 4.06589C9.66659 4.29804 9.48244 4.57364 9.35681 4.87695C9.23117 5.18026 9.1665 5.50535 9.1665 5.83366V12.5003C9.1665 12.7213 9.2543 12.9333 9.41058 13.0896C9.56686 13.2459 9.77882 13.3337 9.99984 13.3337C10.2209 13.3337 10.4328 13.2459 10.5891 13.0896C10.7454 12.9333 10.8332 12.7213 10.8332 12.5003V7.50033C10.8332 7.27931 10.921 7.06735 11.0772 6.91107C11.2335 6.75479 11.4455 6.66699 11.6665 6.66699C11.8875 6.66699 12.0995 6.75479 12.2558 6.91107C12.412 7.06735 12.4998 7.27931 12.4998 7.50033V12.5003C12.4998 13.1634 12.2364 13.7993 11.7676 14.2681C11.2988 14.7369 10.6629 15.0003 9.99984 15.0003C9.3368 15.0003 8.70091 14.7369 8.23207 14.2681C7.76323 13.7993 7.49984 13.1634 7.49984 12.5003V5.83366Z" />
</svg>
