<svg width="16" height="17" viewBox="0 0 16 17" fill="none" xmlns="http://www.w3.org/2000/svg">
<g clip-path="url(#clip0_6293_9098)">
<path d="M13.3333 0.307861H2.66667C1.19391 0.307861 0 1.43893 0 2.83418V13.7815C0 15.1768 1.19391 16.3079 2.66667 16.3079H13.3333C14.8061 16.3079 16 15.1768 16 13.7815V2.83418C16 1.43893 14.8061 0.307861 13.3333 0.307861Z" fill="#2F80ED"/>
<path d="M8.92778 13.7815V8.99631H10.7616L11.0367 7.13089H8.92778V5.94009C8.92778 5.40017 9.09827 5.03223 9.98361 5.03223L11.1109 5.03182V3.36332C10.916 3.34114 10.2467 3.29028 9.46787 3.29028C7.84148 3.29028 6.72802 4.15946 6.72802 5.75534V7.13089H4.88867V8.99631H6.72802V13.7815H8.92778Z" fill="white"/>
</g>
<defs>
<clipPath id="clip0_6293_9098">
<rect width="16" height="16" fill="white" transform="translate(0 0.307861)"/>
</clipPath>
</defs>
</svg>
