<svg width="22" height="20" viewBox="0 0 22 20" fill="#fff" xmlns="http://www.w3.org/2000/svg">
  <path d="M10.4697 1.84113C10.7626 1.54824 11.2374 1.54824 11.5303 1.84113L20.2197 10.5305C20.5126 10.8234 20.9874 10.8234 21.2803 10.5305C21.5732 10.2376 21.5732 9.7627 21.2803 9.46981L12.591 0.780469C11.7123 -0.098211 10.2877 -0.0982088 9.40901 0.78047L0.71967 9.46981C0.426777 9.7627 0.426777 10.2376 0.71967 10.5305C1.01256 10.8234 1.48744 10.8234 1.78033 10.5305L10.4697 1.84113Z" fill="#0F172A"/>
  <path d="M11 3.43212L19.159 11.5911C19.1887 11.6208 19.2191 11.6496 19.25 11.6773V17.8751C19.25 18.9107 18.4105 19.7501 17.375 19.7501H14C13.5858 19.7501 13.25 19.4144 13.25 19.0001V14.5001C13.25 14.0859 12.9142 13.7501 12.5 13.7501H9.5C9.08579 13.7501 8.75 14.0859 8.75 14.5001V19.0001C8.75 19.4144 8.41421 19.7501 8 19.7501H4.625C3.58947 19.7501 2.75 18.9107 2.75 17.8751V11.6773C2.78093 11.6496 2.81127 11.6208 2.84099 11.5911L11 3.43212Z" fill="#0F172A"/>
</svg>

