<svg width="16" height="17" viewBox="0 0 16 17" fill="none" xmlns="http://www.w3.org/2000/svg">
<path d="M1.04347 1.41869C-0.210005 2.72069 0.0465391 4.10376 0.0465391 8.30549C0.0465391 11.7948 -0.562254 15.2927 2.62394 16.1161C3.61888 16.372 12.4344 16.372 13.428 16.1148C14.7546 15.7725 15.8339 14.6965 15.9815 12.8203C16.0021 12.5584 16.0021 4.05724 15.9808 3.79006C15.824 1.79155 14.5938 0.639757 12.9727 0.406475C12.6012 0.352641 12.5268 0.33669 10.6207 0.333367C3.85947 0.33669 2.37736 0.0356169 1.04347 1.41869Z" fill="url(#paint0_linear_6293_9104)"/>
<path d="M8.02077 2.41962C5.60753 2.41962 3.31592 2.20495 2.44061 4.45137C2.07906 5.37918 2.13157 6.58414 2.13157 8.30949C2.13157 9.8235 2.08305 11.2465 2.44061 12.167C3.31393 14.4147 5.62415 14.1994 8.01944 14.1994C10.3303 14.1994 12.713 14.44 13.5989 12.167C13.9612 11.2298 13.908 10.0428 13.908 8.30949C13.908 6.00858 14.0349 4.52315 12.919 3.40792C11.7892 2.27806 10.2612 2.41962 8.01811 2.41962H8.02077ZM7.49306 3.48102C12.5269 3.47305 13.1676 2.91344 12.814 10.6875C12.6884 13.437 10.5948 13.1353 8.02144 13.1353C3.32921 13.1353 3.19429 13.0011 3.19429 8.30684C3.19429 3.55812 3.56648 3.48368 7.49306 3.47969V3.48102ZM11.1644 4.45868C10.9771 4.45868 10.7974 4.53311 10.6649 4.66561C10.5324 4.7981 10.4579 4.9778 10.4579 5.16517C10.4579 5.35255 10.5324 5.53225 10.6649 5.66474C10.7974 5.79723 10.9771 5.87167 11.1644 5.87167C11.3518 5.87167 11.5315 5.79723 11.664 5.66474C11.7965 5.53225 11.8709 5.35255 11.8709 5.16517C11.8709 4.9778 11.7965 4.7981 11.664 4.66561C11.5315 4.53311 11.3518 4.45868 11.1644 4.45868ZM8.02077 5.2848C7.62361 5.28485 7.23034 5.36312 6.86343 5.51515C6.49651 5.66718 6.16313 5.88999 5.88233 6.17085C5.31521 6.73809 4.99666 7.50739 4.99675 8.30949C4.99683 9.1116 5.31556 9.88083 5.8828 10.4479C6.45003 11.0151 7.21933 11.3336 8.02144 11.3335C8.82354 11.3334 9.59277 11.0147 10.1599 10.4475C10.727 9.88023 11.0455 9.11094 11.0455 8.30883C11.0454 7.50672 10.7267 6.7375 10.1594 6.17038C9.59217 5.60327 8.82288 5.28472 8.02077 5.2848ZM8.02077 6.3462C10.6161 6.3462 10.6194 10.2728 8.02077 10.2728C5.42609 10.2728 5.4221 6.3462 8.02077 6.3462Z" fill="white"/>
<defs>
<linearGradient id="paint0_linear_6293_9104" x1="1.07406" y1="15.2655" x2="15.8987" y2="2.43488" gradientUnits="userSpaceOnUse">
<stop stop-color="#FFDD55"/>
<stop offset="0.5" stop-color="#FF543E"/>
<stop offset="1" stop-color="#C837AB"/>
</linearGradient>
</defs>
</svg>
