<svg width="25" height="25" viewBox="0 0 25 25" fill="none" xmlns="http://www.w3.org/2000/svg">
<path fill-rule="evenodd" clip-rule="evenodd" d="M4.21551 3.06642C3.55952 3.65691 2.94911 4.32833 2.3843 5.08067C1.34116 6.51473 0.592751 8.18334 0.229879 9.99424C0.0870718 10.8132 0.0200347 11.6823 0.0250616 12.614C0.0330683 14.1059 0.117217 14.7192 0.521946 16.2366C0.789935 17.2412 1.0091 18.4045 1.0091 18.8217C1.0091 19.2389 0.759165 20.5928 0.453654 21.8302C-0.0964508 24.0591 -0.0989631 24.0843 0.194458 24.477C0.61363 25.0381 1.16562 25.0408 3.22521 24.4917C5.54134 23.8741 6.51126 23.8762 8.84575 24.5029C10.0495 24.8262 11.2376 24.9912 12.3909 25C17.3941 24.9604 21.6867 21.8899 23.5756 17.5075C23.7012 17.2159 23.8162 16.9186 23.9202 16.6159C24.2919 15.5328 24.521 14.3818 24.5847 13.186C24.6023 12.6679 24.5981 12.1343 24.5727 11.6168C24.151 5.4828 19.3713 0.568524 13.3569 0.0456047C12.9684 0.0181762 12.5737 0.0027543 12.1874 0C9.13785 0.0259612 6.35274 1.1779 4.21551 3.06642ZM1.15541 23.8584C1.08854 23.8584 1.25149 23.0679 1.5176 22.1015C1.78552 21.1286 1.94727 20.2183 2.00298 19.3644C2.07605 18.2446 1.96668 17.2222 1.67523 16.284C1.51813 15.7782 1.39054 15.2815 1.29244 14.7916L1.28168 14.7201C1.14247 14.0021 1.06948 13.2598 1.06948 12.5C1.06948 6.19656 6.09431 1.08655 12.2927 1.08655C18.4912 1.08655 23.516 6.19656 23.516 12.5C23.516 15.1198 22.6482 17.5334 21.1887 19.4597C20.8484 19.8601 20.4554 20.2896 20.0836 20.6601C18.9425 21.7979 18.4115 22.1967 17.3251 22.7321C16.3402 23.2174 15.486 23.5204 14.5531 23.682C13.8229 23.8339 13.067 23.9135 12.2927 23.9135C11.2107 23.9135 10.1645 23.7579 9.1745 23.4672C8.999 23.4229 8.82083 23.3733 8.63584 23.318C7.45713 22.9648 6.55406 22.8313 5.49186 22.9213C4.81247 22.9789 4.06802 23.128 3.14469 23.3696C2.11747 23.6385 1.22229 23.8584 1.15541 23.8584Z" fill="url(#paint0_angular_8753_15403)"/>
<path fill-rule="evenodd" clip-rule="evenodd" d="M5.7832 4.85621C5.25386 5.33269 4.7613 5.87448 4.30554 6.48155C3.46381 7.63873 2.8599 8.98518 2.56709 10.4464C2.45185 11.1073 2.39776 11.8086 2.40181 12.5604C2.40828 13.7642 2.47618 14.2591 2.80276 15.4836C3.01901 16.2942 3.19586 17.2329 3.19586 17.5695C3.19586 17.9062 2.99418 18.9987 2.74766 19.9972C2.30376 21.7957 2.30174 21.8161 2.53851 22.133C2.87675 22.5857 3.32216 22.5879 4.9841 22.1448C6.85304 21.6464 7.63569 21.6481 9.51946 22.1539C10.4908 22.4147 11.4495 22.5479 12.3801 22.555C16.4174 22.5231 19.8811 20.0453 21.4053 16.5091C21.5067 16.2738 21.5995 16.0339 21.6834 15.7896C21.9834 14.9156 22.1682 13.9868 22.2196 13.022C22.2338 12.6039 22.2305 12.1733 22.21 11.7557C21.8697 6.80604 18.0128 2.84059 13.1596 2.41864C12.8462 2.3965 12.5277 2.38406 12.2159 2.38184C9.75515 2.40278 7.50778 3.33231 5.7832 4.85621Z" fill="black"/>
<defs>
<radialGradient id="paint0_angular_8753_15403" cx="0" cy="0" r="1" gradientUnits="userSpaceOnUse" gradientTransform="translate(12.2977 12.5) rotate(177.49) scale(17.4189 17.5957)">
<stop offset="0.0647736" stop-color="#EEAF4C"/>
<stop offset="0.189249" stop-color="#E88754"/>
<stop offset="0.403621" stop-color="#E9496F"/>
<stop offset="0.517054" stop-color="#E96FBE"/>
<stop offset="0.66207" stop-color="#DD99F8"/>
<stop offset="0.823777" stop-color="#66B5F9"/>
<stop offset="0.900541" stop-color="#7BC7EF"/>
</radialGradient>
</defs>
</svg>
