<svg width="36" height="45" viewBox="0 0 36 45" fill="none" xmlns="http://www.w3.org/2000/svg">
<g clip-path="url(#clip0_6292_8601)">
<path d="M24.3543 8.64666L23.6611 11.2173C29.2529 13.6009 33.181 19.2095 33.181 25.7061C33.181 34.3993 26.2028 41.4568 17.6072 41.4568C9.01155 41.5035 2.03338 34.4461 2.03338 25.7061C2.03338 18.8356 6.42362 12.9466 12.4775 10.8433L13.5404 8.03906C5.73042 10.0955 0 17.2932 0 25.893C0 36.0819 8.04108 44.3078 18.0231 44.3078C28.0051 44.3078 36.0462 36.0819 36.0462 25.893C36 17.9943 31.1476 11.264 24.3543 8.64666Z" fill="#D65130"/>
<path d="M30.9628 25.0985L29.3454 25.0518C29.2991 25.0518 29.2529 25.0051 29.2529 24.9583L29.6688 19.8639C29.6688 19.8171 29.6688 19.7704 29.6226 19.7704C29.2067 19.5367 26.8036 18.1346 22.4596 17.0596C22.4134 17.0596 22.3672 17.0128 22.3672 16.9194C22.4596 16.265 22.5058 15.8444 22.552 15.6574C22.552 15.6107 22.5058 15.564 22.4596 15.5172C22.1823 15.4238 21.3043 15.1901 20.2414 15.1433C20.1952 15.1433 20.1027 15.0966 20.1489 15.0031C20.4262 13.8347 21.5816 8.74021 21.8126 7.80544C21.8126 7.71197 21.7664 7.66523 21.7202 7.66523L18.5315 7.94566C18.4391 7.94566 18.3928 7.89892 18.4391 7.80544L20.1489 0.140399C20.1952 0.000184765 20.0103 -0.0465533 19.9179 0.0469228L15.0655 10.2826C15.0193 10.376 15.0655 10.4695 15.1579 10.4228L18.4853 10.2826C18.5777 10.2826 18.6239 10.376 18.5777 10.4228L17.2837 14.6759C17.2837 14.7227 17.2375 14.7694 17.1913 14.7694L15.1579 14.8162C15.1117 14.8162 15.0655 14.8629 15.0655 14.9096L15.0193 16.1716C15.0193 16.2183 14.9731 16.265 14.9269 16.265C14.2337 16.3118 9.93585 16.4987 7.3017 17.3868C7.25549 17.3868 7.20928 17.4335 7.20928 17.4802L6.74715 22.4812C6.74715 22.5279 6.70093 22.5747 6.60851 22.5747L4.94483 22.4345C4.89862 22.4345 4.85241 22.4812 4.8062 22.5279L4.29785 27.0615C4.29785 27.1083 4.34406 27.2017 4.39028 27.2017L6.00774 27.342C6.05395 27.342 6.10016 27.3887 6.10016 27.4822L5.73046 31.2212C5.73046 31.268 5.73046 31.3147 5.77667 31.3147C6.60851 31.8288 16.4057 37.4841 28.0976 33.8386C28.1438 33.8386 28.19 33.7918 28.19 33.7451C28.3749 32.156 28.5135 30.4734 28.5597 30.0528C28.5597 30.006 28.6059 29.9593 28.6984 29.9593L30.4083 30.1462C30.4545 30.1462 30.5007 30.0995 30.5469 30.0528L31.0552 25.379C31.0552 25.1453 31.009 25.0985 30.9628 25.0985ZM25.3248 31.081C25.3248 31.081 17.3299 33.3244 9.15023 29.4452C9.42751 26.5474 10.0283 19.8639 10.0283 19.8639C10.0283 19.8639 18.4391 18.0411 26.2491 21.6867L25.3248 31.081Z" fill="#D65130"/>
<path d="M14.4647 23.2757C14.4647 23.2757 14.2799 23.2289 14.1412 23.2757C14.0026 23.2757 13.9102 23.3691 13.7715 23.4159C13.4943 23.5561 11.2298 24.3974 12.1079 25.5191C12.5238 25.9397 12.8935 25.9865 13.5405 25.6126C13.9102 25.3789 14.1875 25.3321 14.2337 25.3321C14.2337 25.1452 14.4647 23.2757 14.4647 23.2757Z" fill="#D65130"/>
<path d="M14.4186 23.2758C14.4186 23.2758 14.6034 23.2758 14.7421 23.3225C14.8807 23.3692 14.9731 23.4627 15.0655 23.5562C15.2966 23.7899 17.33 25.0518 16.2209 25.9866C15.7587 26.3137 15.3428 26.267 14.7883 25.7529C14.4648 25.4724 14.2337 25.3322 14.1875 25.3322C14.2337 25.1453 14.4186 23.2758 14.4186 23.2758Z" fill="#D65130"/>
<path d="M21.4428 24.0235C21.4428 24.0235 21.2579 23.9767 21.1193 24.0235C20.9806 24.0235 20.8882 24.1169 20.7496 24.1637C20.4723 24.3039 18.2079 25.1452 19.0859 26.2669C19.5018 26.6875 19.8715 26.7343 20.5185 26.3604C20.8882 26.1267 21.1655 26.0799 21.2117 26.0799C21.2117 25.893 21.4428 24.0235 21.4428 24.0235Z" fill="#D65130"/>
<path d="M21.3966 24.0236C21.3966 24.0236 21.5814 24.0236 21.7201 24.0703C21.8587 24.117 21.9512 24.2105 22.0436 24.304C22.2746 24.5377 24.308 25.7996 23.1989 26.7344C22.7368 27.0615 22.3209 27.0148 21.7663 26.5007C21.4428 26.2202 21.2117 26.08 21.1655 26.08C21.2117 25.8931 21.3966 24.0236 21.3966 24.0236Z" fill="#D65130"/>
<path d="M5.45312 37.5776C5.45312 37.5776 16.1283 33.2777 27.6354 39.821C24.077 41.7373 20.611 42.7655 20.611 42.7655L10.7214 41.1764L6.33117 38.7928L5.45312 37.5776Z" fill="#D65130"/>
</g>
<defs>
<clipPath id="clip0_6292_8601">
<rect y="0.00012207" width="36" height="44.3077" rx="18" fill="#D65130"/>
</clipPath>
</defs>
</svg>
