<svg width="30" height="32" viewBox="0 0 30 32" fill="none" xmlns="http://www.w3.org/2000/svg">
<path fill-rule="evenodd" clip-rule="evenodd" d="M5.14183 4.49316C4.34169 5.21341 3.59714 6.03237 2.90822 6.95002C1.63587 8.6992 0.723002 10.7345 0.280393 12.9433C0.106205 13.9423 0.0244372 15.0023 0.0305686 16.1387C0.0403347 17.9584 0.142974 18.7065 0.636639 20.5574C0.963515 21.7827 1.23084 23.2017 1.23084 23.7105C1.23084 24.2194 0.925984 25.8707 0.55334 27.3801C-0.117645 30.0988 -0.120709 30.1295 0.237189 30.6086C0.748469 31.2929 1.42175 31.2962 3.93392 30.6264C6.759 29.8731 7.94204 29.8756 10.7895 30.6401C12.2578 31.0344 13.7069 31.2357 15.1137 31.2464C21.2163 31.1982 26.4521 27.4529 28.7561 22.1076C28.9094 21.7518 29.0496 21.3892 29.1764 21.02C29.6298 19.6989 29.9092 18.2949 29.987 16.8365C30.0084 16.2044 30.0033 15.5536 29.9724 14.9224C29.458 7.44052 23.628 1.44638 16.292 0.808556C15.8181 0.7751 15.3367 0.756289 14.8655 0.75293C11.1458 0.784596 7.74869 2.18966 5.14183 4.49316ZM1.4093 29.854C1.32773 29.854 1.52649 28.8897 1.85108 27.711C2.17787 26.5244 2.37516 25.414 2.44311 24.3725C2.53224 23.0066 2.39884 21.7595 2.04334 20.6152C1.85173 19.9983 1.6961 19.3923 1.57644 18.7949L1.56331 18.7077C1.39351 17.8318 1.30449 16.9264 1.30449 15.9997C1.30449 8.31112 7.43347 2.07824 14.994 2.07824C22.5544 2.07824 28.6834 8.31112 28.6834 15.9997C28.6834 19.1952 27.6249 22.1391 25.8448 24.4887C25.4296 24.9771 24.9502 25.5009 24.4968 25.9529C23.1049 27.3407 22.4572 27.8272 21.1321 28.4802C19.9308 29.0722 18.8889 29.4417 17.751 29.6388C16.8604 29.8241 15.9384 29.9212 14.994 29.9212C13.6742 29.9212 12.3981 29.7314 11.1905 29.3768C10.9764 29.3227 10.7591 29.2623 10.5335 29.1948C9.09576 28.764 7.99425 28.6012 6.69864 28.711C5.86996 28.7813 4.96193 28.963 3.8357 29.2578C2.58276 29.5858 1.49088 29.854 1.4093 29.854Z" fill="url(#paint0_angular_8924_15523)"/>
<path fill-rule="evenodd" clip-rule="evenodd" d="M7.05337 6.67629C6.40771 7.25747 5.80692 7.91832 5.25102 8.65879C4.22432 10.0703 3.48771 11.7126 3.13055 13.4949C2.99 14.301 2.92402 15.1564 2.92896 16.0734C2.93684 17.5418 3.01967 18.1454 3.41802 19.6389C3.68178 20.6277 3.89749 21.7726 3.89749 22.1833C3.89749 22.5939 3.6515 23.9264 3.3508 25.1443C2.80937 27.3381 2.80689 27.3629 3.09569 27.7495C3.50826 28.3017 4.05154 28.3043 6.07867 27.7639C8.3583 27.156 9.31293 27.158 11.6106 27.7749C12.7954 28.0931 13.9648 28.2555 15.0999 28.2642C20.0243 28.2253 24.2492 25.2031 26.1083 20.8898C26.232 20.6028 26.3452 20.3101 26.4475 20.0122C26.8134 18.9462 27.0388 17.8133 27.1015 16.6364C27.1188 16.1264 27.1147 15.6012 27.0898 15.0919C26.6747 9.05459 21.9703 4.21777 16.0507 3.70309C15.6683 3.67609 15.2799 3.66091 14.8996 3.6582C11.8981 3.68376 9.15691 4.81754 7.05337 6.67629Z" fill="black"/>
<defs>
<radialGradient id="paint0_angular_8924_15523" cx="0" cy="0" r="1" gradientUnits="userSpaceOnUse" gradientTransform="translate(15 15.9997) rotate(177.49) scale(21.2465 21.4622)">
<stop offset="0.0647736" stop-color="#EEAF4C"/>
<stop offset="0.189249" stop-color="#E88754"/>
<stop offset="0.403621" stop-color="#E9496F"/>
<stop offset="0.517054" stop-color="#E96FBE"/>
<stop offset="0.66207" stop-color="#DD99F8"/>
<stop offset="0.823777" stop-color="#66B5F9"/>
<stop offset="0.900541" stop-color="#7BC7EF"/>
</radialGradient>
</defs>
</svg>
