<svg width="25" height="24" viewBox="0 0 25 24" fill="none" xmlns="http://www.w3.org/2000/svg">
<path d="M17.3812 4.34562C15.31 5.17419 13.0917 5.71339 10.776 5.9132C10.1085 5.97079 9.43276 6.0002 8.75 6.0002H8C5.10051 6.0002 2.75 8.35071 2.75 11.2502C2.75 13.8498 4.63945 16.0081 7.11997 16.4268C7.45424 17.7958 7.91805 19.114 8.49764 20.3676C8.96171 21.3714 10.1718 21.6876 11.0803 21.1631L11.7366 20.7842C12.6167 20.2761 12.9023 19.1915 12.5087 18.3161C12.2738 17.7937 12.0642 17.2576 11.8814 16.7092C13.7988 16.9672 15.6419 17.459 17.3812 18.1548C18.1069 15.9854 18.5 13.6637 18.5 11.2502C18.5 8.83667 18.1069 6.51496 17.3812 4.34562Z" fill="#0F172A"/>
<path d="M18.7606 3.7409C19.5641 6.0966 20 8.62249 20 11.2502C20 13.8779 19.5641 16.4038 18.7606 18.7595C18.7054 18.9212 18.6487 19.0823 18.5901 19.2424C18.4477 19.6314 18.6476 20.0621 19.0366 20.2045C19.4256 20.3469 19.8563 20.147 19.9987 19.758C20.1387 19.3755 20.2696 18.9886 20.391 18.5975C20.9147 16.9107 21.2627 15.147 21.414 13.328C21.931 12.7895 22.25 12.0569 22.25 11.2502C22.25 10.4436 21.931 9.71091 21.414 9.17246C21.2627 7.35337 20.9147 5.58966 20.391 3.90292C20.2696 3.51183 20.1387 3.1249 19.9987 2.7424C19.8563 2.35342 19.4256 2.15352 19.0366 2.29591C18.6476 2.43829 18.4477 2.86904 18.5901 3.25801C18.6487 3.41813 18.7055 3.57916 18.7606 3.7409Z" fill="#0F172A"/>
</svg>
