<svg width="21" height="19" viewBox="0 0 21 19" fill="#0F172A" xmlns="http://www.w3.org/2000/svg">
<path d="M7.2915 9.00012C7.2915 9.20723 7.12361 9.37512 6.9165 9.37512C6.7094 9.37512 6.5415 9.20723 6.5415 9.00012C6.5415 8.79302 6.7094 8.62512 6.9165 8.62512C7.12361 8.62512 7.2915 8.79302 7.2915 9.00012ZM7.2915 9.00012H6.9165M11.0415 9.00012C11.0415 9.20723 10.8736 9.37512 10.6665 9.37512C10.4594 9.37512 10.2915 9.20723 10.2915 9.00012C10.2915 8.79302 10.4594 8.62512 10.6665 8.62512C10.8736 8.62512 11.0415 8.79302 11.0415 9.00012ZM11.0415 9.00012H10.6665M14.7915 9.00012C14.7915 9.20723 14.6236 9.37512 14.4165 9.37512C14.2094 9.37512 14.0415 9.20723 14.0415 9.00012C14.0415 8.79302 14.2094 8.62512 14.4165 8.62512C14.6236 8.62512 14.7915 8.79302 14.7915 9.00012ZM14.7915 9.00012H14.4165M19.6665 9.00012C19.6665 13.5565 15.6371 17.2501 10.6665 17.2501C9.77903 17.2501 8.92157 17.1324 8.11168 16.913C7.13666 17.598 5.94851 18.0001 4.6665 18.0001C4.46729 18.0001 4.27026 17.9904 4.07617 17.9715C3.9165 17.9559 3.7583 17.934 3.60229 17.9061C4.08582 17.3354 4.42927 16.6428 4.58039 15.8809C4.67104 15.4239 4.44721 14.98 4.11334 14.655C2.59621 13.1783 1.6665 11.1887 1.6665 9.00012C1.6665 4.44377 5.69594 0.750122 10.6665 0.750122C15.6371 0.750122 19.6665 4.44377 19.6665 9.00012Z" stroke="#0F172A" stroke-width="1.5" stroke-linecap="round" stroke-linejoin="round"/>
</svg>
