<svg width="21" height="20" viewBox="0 0 21 20" fill="none" xmlns="http://www.w3.org/2000/svg">
<path d="M8.84044 13.8399C8.15153 13.7805 7.45431 13.7501 6.75 13.7501H6C3.51472 13.7501 1.5 11.7354 1.5 9.25012C1.5 6.76484 3.51472 4.75012 6 4.75012H6.75C7.45431 4.75012 8.15153 4.71978 8.84044 4.66034M8.84044 13.8399C9.09329 14.8016 9.42372 15.7318 9.82463 16.6236C10.0721 17.1739 9.88422 17.8329 9.3616 18.1346L8.70529 18.5135C8.1539 18.8319 7.4456 18.6307 7.17841 18.0528C6.5518 16.6974 6.06541 15.264 5.73786 13.7711M8.84044 13.8399C8.45517 12.3746 8.25 10.8363 8.25 9.25012C8.25 7.66391 8.45518 6.12562 8.84044 4.66034M8.84044 13.8399C12 14.1125 14.9845 14.9973 17.6747 16.375M8.84044 4.66034C12 4.38773 14.9845 3.50295 17.6747 2.12521M17.6747 2.12521C17.557 1.74607 17.4302 1.37095 17.2944 1.00012M17.6747 2.12521C18.2097 3.8484 18.5557 5.65475 18.6886 7.52004M17.6747 16.375C17.557 16.7542 17.4302 17.1293 17.2944 17.5001M17.6747 16.375C18.2097 14.6518 18.5557 12.8455 18.6886 10.9802M18.6886 7.52004C19.1844 7.93276 19.5 8.55458 19.5 9.25012C19.5 9.94566 19.1844 10.5675 18.6886 10.9802M18.6886 7.52004C18.7293 8.09143 18.75 8.66836 18.75 9.25012C18.75 9.83188 18.7293 10.4088 18.6886 10.9802" stroke="#0F172A" stroke-width="1.5" stroke-linecap="round" stroke-linejoin="round"/>
</svg>
