<svg width="24" height="25" viewBox="0 0 24 25" fill="none" xmlns="http://www.w3.org/2000/svg">
<path d="M3.47779 2.71217C3.21306 2.63526 2.92747 2.70979 2.73407 2.90626C2.54068 3.10273 2.47066 3.38946 2.55174 3.65296L4.98402 11.5579H13.4998C13.914 11.5579 14.2498 11.8936 14.2498 12.3079C14.2498 12.7221 13.914 13.0579 13.4998 13.0579H4.98403L2.55183 20.9625C2.47076 21.226 2.54077 21.5127 2.73417 21.7092C2.92756 21.9057 3.21315 21.9802 3.47789 21.9033C10.1765 19.9573 16.3972 16.8893 21.923 12.9166C22.119 12.7757 22.2352 12.549 22.2352 12.3076C22.2352 12.0662 22.119 11.8396 21.923 11.6987C16.3971 7.72603 10.1764 4.65807 3.47779 2.71217Z" fill="#0F172A"/>
</svg>
