<svg width="16" height="16" viewBox="0 0 16 16" fill="none" xmlns="http://www.w3.org/2000/svg">
<path d="M7.64645 1.14645C7.84171 0.951184 8.15829 0.951184 8.35355 1.14645L10.3536 3.14645C10.5488 3.34171 10.5488 3.65829 10.3536 3.85355C10.1583 4.04882 9.84171 4.04882 9.64645 3.85355L8.5 2.70711L8.5 5H7.5V2.70711L6.35355 3.85355C6.15829 4.04882 5.84171 4.04882 5.64645 3.85355C5.45118 3.65829 5.45118 3.34171 5.64645 3.14645L7.64645 1.14645Z" fill="white"/>
<path d="M7.5 5L7.5 10C7.5 10.2761 7.72386 10.5 8 10.5C8.27614 10.5 8.5 10.2761 8.5 10V5H11C12.1046 5 13 5.89543 13 7V13C13 14.1046 12.1046 15 11 15H5C3.89543 15 3 14.1046 3 13V7C3 5.89543 3.89543 5 5 5H7.5Z" fill="white"/>
</svg>
