<svg width="21" height="20" viewBox="0 0 21 20" fill="none" xmlns="http://www.w3.org/2000/svg">
<path d="M15.3812 2.34562C13.31 3.17419 11.0917 3.71339 8.77596 3.9132C8.10847 3.97079 7.43276 4.0002 6.75 4.0002H6C3.10051 4.0002 0.75 6.35071 0.75 9.2502C0.75 11.8498 2.63945 14.0081 5.11997 14.4268C5.45424 15.7958 5.91805 17.114 6.49764 18.3676C6.96171 19.3714 8.17181 19.6876 9.08029 19.1631L9.7366 18.7842C10.6167 18.2761 10.9023 17.1915 10.5087 16.3161C10.2738 15.7937 10.0642 15.2576 9.88142 14.7092C11.7988 14.9672 13.6419 15.459 15.3812 16.1548C16.1069 13.9854 16.5 11.6637 16.5 9.25018C16.5 6.83667 16.1069 4.51496 15.3812 2.34562Z" fill="#0F172A"/>
<path d="M16.7606 1.7409C17.5641 4.0966 18 6.62249 18 9.25018C18 11.8779 17.5641 14.4038 16.7606 16.7595C16.7054 16.9212 16.6487 17.0823 16.5901 17.2424C16.4477 17.6314 16.6476 18.0621 17.0366 18.2045C17.4256 18.3469 17.8563 18.147 17.9987 17.758C18.1387 17.3755 18.2696 16.9886 18.391 16.5975C18.9147 14.9107 19.2627 13.147 19.414 11.328C19.931 10.7895 20.25 10.0569 20.25 9.2502C20.25 8.44355 19.931 7.71091 19.414 7.17246C19.2627 5.35337 18.9147 3.58966 18.391 1.90292C18.2696 1.51183 18.1387 1.1249 17.9987 0.742398C17.8563 0.353424 17.4256 0.153523 17.0366 0.295906C16.6476 0.438288 16.4477 0.869037 16.5901 1.25801C16.6487 1.41813 16.7055 1.57916 16.7606 1.7409Z" fill="#0F172A"/>
</svg>
