<svg width="16" height="17" viewBox="0 0 16 17" fill="none" xmlns="http://www.w3.org/2000/svg">
<g clip-path="url(#clip0_6293_9123)">
<path d="M15.9989 12.2634C15.9989 12.3509 15.9962 12.5409 15.991 12.6877C15.9781 13.0468 15.9496 13.5102 15.9066 13.7213C15.8419 14.0386 15.7442 14.3381 15.6169 14.5873C15.4662 14.8822 15.274 15.1463 15.0456 15.3743C14.8177 15.6018 14.5539 15.7932 14.2594 15.9433C14.0089 16.071 13.7075 16.1687 13.3884 16.2331C13.1794 16.2753 12.7195 16.3032 12.3627 16.3159C12.2158 16.3212 12.0258 16.3238 11.9385 16.3238L4.05995 16.3225C3.97234 16.3225 3.78237 16.3199 3.63561 16.3146C3.2765 16.3017 2.81312 16.2732 2.60198 16.2302C2.2847 16.1655 1.98521 16.0678 1.73596 15.9405C1.44109 15.7898 1.17698 15.5976 0.949027 15.3692C0.721527 15.1414 0.53009 14.8775 0.380043 14.5831C0.252324 14.3325 0.154605 14.0312 0.0901836 13.7121C0.0479961 13.5031 0.0200742 13.0432 0.00737109 12.6863C0.00215234 12.5394 -0.000488281 12.3494 -0.000488281 12.2621L0.000761719 4.38357C0.000761719 4.29596 0.00343359 4.10598 0.00869922 3.95921C0.0215898 3.6001 0.050043 3.13673 0.0930898 2.9256C0.157793 2.60832 0.255449 2.30884 0.382809 2.05957C0.53348 1.76471 0.725684 1.50059 0.954043 1.27264C1.18192 1.04515 1.44579 0.853698 1.74021 0.703636C1.99079 0.575948 2.29215 0.478229 2.61123 0.413808C2.82025 0.371604 3.28017 0.343683 3.63698 0.330995C3.78389 0.325761 3.97393 0.32312 4.06118 0.32312L11.9397 0.324386C12.0274 0.324386 12.2173 0.327058 12.3641 0.332323C12.7232 0.345214 13.1866 0.373667 13.3977 0.416714C13.715 0.481417 14.0145 0.579073 14.2637 0.706433C14.5586 0.857104 14.8227 1.04931 15.0507 1.27767C15.2781 1.50554 15.4696 1.7694 15.6196 2.06384C15.7474 2.31442 15.8451 2.61576 15.9095 2.93484C15.9517 3.14387 15.9796 3.60378 15.9923 3.9606C15.9975 4.10751 16.0002 4.29754 16.0002 4.38482L15.9989 12.2634Z" fill="url(#paint0_linear_6293_9123)"/>
<path d="M12.2392 4.10855C11.1559 3.02438 9.71527 2.427 8.18036 2.42639C5.01783 2.42639 2.44391 4.99933 2.44264 8.16189C2.44223 9.17281 2.70644 10.1596 3.20853 11.0294L2.39453 14.0018L5.43617 13.2041C6.27423 13.6611 7.21777 13.9019 8.17808 13.9023H8.18044C11.3427 13.9023 13.9168 11.329 13.9181 8.16645C13.9187 6.63384 13.3225 5.19272 12.2392 4.10855ZM8.18044 12.9336H8.17848C7.32275 12.9332 6.48344 12.7034 5.75123 12.269L5.57708 12.1657L3.77213 12.6391L4.25391 10.8798L4.14048 10.6994C3.66311 9.94039 3.41098 9.06305 3.41136 8.16227C3.41239 5.53369 5.55175 3.39514 8.18228 3.39514C9.45605 3.39563 10.6534 3.89219 11.5538 4.7933C12.4542 5.69441 12.9498 6.89224 12.9493 8.16609C12.9483 10.7949 10.809 12.9336 8.18044 12.9336ZM10.7963 9.36302C10.6529 9.29128 9.94808 8.94455 9.81666 8.89672C9.68525 8.84888 9.58969 8.82497 9.49408 8.96847C9.39853 9.11194 9.12378 9.43477 9.04013 9.53041C8.9565 9.62606 8.87287 9.63803 8.72952 9.56628C8.58614 9.49455 8.1242 9.3432 7.57661 8.85494C7.15044 8.47495 6.86269 8.00558 6.77906 7.86208C6.69544 7.71859 6.77017 7.64105 6.84194 7.56958C6.90642 7.50538 6.9853 7.40219 7.05698 7.3185C7.12866 7.23483 7.15256 7.17502 7.20034 7.07938C7.24814 6.98372 7.22423 6.90002 7.18839 6.82828C7.15256 6.75655 6.86583 6.05111 6.74636 5.76416C6.63 5.48469 6.51178 5.5225 6.42378 5.51811C6.34025 5.51395 6.24458 5.51308 6.14902 5.51308C6.05345 5.51308 5.89813 5.54894 5.76672 5.69242C5.63531 5.83591 5.26495 6.18264 5.26495 6.88806C5.26495 7.59349 5.77866 8.275 5.85034 8.37064C5.92203 8.4663 6.86127 9.91394 8.29942 10.5347C8.64148 10.6824 8.90852 10.7706 9.11673 10.8366C9.46017 10.9457 9.7727 10.9303 10.0198 10.8934C10.2952 10.8523 10.8679 10.5467 10.9874 10.2119C11.1069 9.87714 11.1069 9.5902 11.0711 9.53042C11.0352 9.47064 10.9397 9.43477 10.7963 9.36302Z" fill="white"/>
</g>
<defs>
<linearGradient id="paint0_linear_6293_9123" x1="7.99984" y1="0.32312" x2="7.99984" y2="16.3238" gradientUnits="userSpaceOnUse">
<stop stop-color="#61FD7D"/>
<stop offset="1" stop-color="#2BB826"/>
</linearGradient>
<clipPath id="clip0_6293_9123">
<rect width="16" height="16" fill="white" transform="translate(0 0.307861)"/>
</clipPath>
</defs>
</svg>
