<svg width="16" height="17" viewBox="0 0 16 17" fill="none" xmlns="http://www.w3.org/2000/svg">
<g clip-path="url(#clip0_6293_9111)">
<path fill-rule="evenodd" clip-rule="evenodd" d="M7.29034 0.360962H8.70378C10.645 0.360962 11.7794 0.64608 12.7864 1.18598C13.7934 1.72588 14.5881 2.51451 15.1219 3.52153C15.6618 4.52854 15.9469 5.66294 15.9469 7.60416V9.01155C15.9469 10.9528 15.6618 12.0872 15.1219 13.0942C14.582 14.1012 13.7934 14.8959 12.7864 15.4297C11.7794 15.9696 10.645 16.2547 8.70378 16.2547H7.29639C5.35517 16.2547 4.22077 15.9696 3.21376 15.4297C2.20676 14.8898 1.41208 14.1012 0.878241 13.0942C0.338338 12.0872 0.0532227 10.9528 0.0532227 9.01155V7.60416C0.0532227 5.66294 0.338338 4.52854 0.878241 3.52153C1.41814 2.51451 2.20676 1.71982 3.21376 1.18598C4.21472 0.64608 5.35517 0.360962 7.29034 0.360962Z" fill="#0068FF"/>
<path opacity="0.12" fill-rule="evenodd" clip-rule="evenodd" d="M15.9468 8.77942V9.01167C15.9468 10.9529 15.6617 12.0873 15.1218 13.0943C14.5819 14.1013 13.7932 14.896 12.7862 15.4299C11.7792 15.9698 10.6448 16.2549 8.70358 16.2549H7.29622C5.70781 16.2549 4.65958 16.064 3.77933 15.6988L2.32812 14.2044L15.9468 8.77942Z" fill="#001A33"/>
<path fill-rule="evenodd" clip-rule="evenodd" d="M2.48938 14.2564C3.23271 14.3386 4.16205 14.1266 4.82192 13.8063C7.6873 15.39 12.1664 15.3144 14.8776 13.5793C14.9828 13.4216 15.081 13.2575 15.1722 13.0875C15.7141 12.0768 16.0002 10.9383 16.0002 8.98997V7.57746C16.0002 5.62914 15.7141 4.49061 15.1722 3.47993C14.6364 2.46926 13.8388 1.67776 12.8282 1.13589C11.8175 0.594018 10.6789 0.307861 8.73066 0.307861H7.31207C5.65271 0.307861 4.57552 0.516743 3.67047 0.915519C3.62099 0.95982 3.57245 1.00488 3.52493 1.05069C0.869646 3.61036 0.667803 9.15884 2.91939 12.1729C2.9219 12.1773 2.92468 12.1818 2.92774 12.1864C3.27479 12.6978 2.93992 13.5928 2.41632 14.1164C2.33108 14.1955 2.36152 14.2442 2.48938 14.2564Z" fill="white"/>
<path d="M6.58023 5.7478H3.46823V6.4151H5.62781L3.49853 9.05395C3.43181 9.151 3.3833 9.24201 3.3833 9.44825V9.61811H6.31936C6.46496 9.61811 6.58631 9.49679 6.58631 9.35119V8.99327H4.31751L6.31936 6.48182C6.3497 6.44543 6.40429 6.37871 6.42858 6.34838L6.44071 6.33017C6.55597 6.16031 6.58023 6.01472 6.58023 5.83881V5.7478Z" fill="#0068FF"/>
<path d="M10.5413 9.61811H10.9842V5.7478H10.3169V9.39366C10.3169 9.515 10.414 9.61811 10.5413 9.61811Z" fill="#0068FF"/>
<path d="M8.26072 6.60938C7.42356 6.60938 6.74414 7.2888 6.74414 8.12595C6.74414 8.9631 7.42356 9.64253 8.26072 9.64253C9.09787 9.64253 9.77729 8.9631 9.77729 8.12595C9.78337 7.2888 9.10395 6.60938 8.26072 6.60938ZM8.26072 9.01769C7.76936 9.01769 7.36897 8.61731 7.36897 8.12595C7.36897 7.63459 7.76936 7.23421 8.26072 7.23421C8.75208 7.23421 9.15246 7.63459 9.15246 8.12595C9.15246 8.61731 8.75816 9.01769 8.26072 9.01769Z" fill="#0068FF"/>
<path d="M12.9559 6.58508C12.1127 6.58508 11.4272 7.27059 11.4272 8.11379C11.4272 8.95702 12.1127 9.64252 12.9559 9.64252C13.7991 9.64252 14.4847 8.95702 14.4847 8.11379C14.4847 7.27059 13.7991 6.58508 12.9559 6.58508ZM12.9559 9.01769C12.4585 9.01769 12.0581 8.61731 12.0581 8.11987C12.0581 7.62243 12.4585 7.22204 12.9559 7.22204C13.4534 7.22204 13.8538 7.62243 13.8538 8.11987C13.8538 8.61731 13.4534 9.01769 12.9559 9.01769Z" fill="#0068FF"/>
<path d="M9.42609 9.61806H9.78401V6.69409H9.15918V9.35723C9.15918 9.49675 9.28049 9.61806 9.42609 9.61806Z" fill="#0068FF"/>
</g>
<defs>
<clipPath id="clip0_6293_9111">
<rect width="16" height="16" fill="white" transform="translate(0 0.307861)"/>
</clipPath>
</defs>
</svg>
